<svg width="173" height="48" viewBox="0 0 173 48" fill="none" xmlns="http://www.w3.org/2000/svg">
<path d="M0.64 2.848C0.64 1.344 1.648 0.591998 3.664 0.591998C6.224 0.591998 8.992 1.76 11.968 4.096C14.976 6.4 17.6 9.92 19.84 14.656C22.848 21.088 24.832 25.168 25.792 26.896C25.728 17.264 25.456 11.136 24.976 8.512C24.496 5.856 24.256 4.128 24.256 3.328C24.256 2.528 24.48 1.872 24.928 1.36C25.408 0.847999 25.968 0.591998 26.608 0.591998C27.28 0.591998 27.824 0.847999 28.24 1.36C28.656 1.872 28.864 2.64 28.864 3.664C28.864 4.656 28.784 6.496 28.624 9.184C28.304 15.456 28.144 21.68 28.144 27.856C28.144 28.624 28.368 29.44 28.816 30.304C29.264 31.168 29.488 31.84 29.488 32.32C29.488 32.768 29.28 33.216 28.864 33.664C28.448 34.08 27.904 34.288 27.232 34.288C26.144 34.288 25.2 33.616 24.4 32.272C23.6 30.896 22.432 28.368 20.896 24.688C19.36 21.008 18.24 18.352 17.536 16.72C14.624 9.968 10.832 6.096 6.16 5.104C6.064 7.216 6.016 10.576 6.016 15.184C6.016 19.792 6.16 23.616 6.448 26.656C6.768 29.696 6.928 31.472 6.928 31.984C6.928 32.496 6.704 33.008 6.256 33.52C5.84 34.032 5.296 34.288 4.624 34.288C3.952 34.288 3.392 34.032 2.944 33.52C2.528 33.008 2.32 32.496 2.32 31.984C2.32 31.472 2.464 29.696 2.752 26.656C3.072 23.616 3.232 20.624 3.232 17.68C3.232 14.736 3.168 10.448 3.04 4.816C2.4 4.784 1.84 4.608 1.36 4.288C0.88 3.936 0.64 3.456 0.64 2.848ZM39.5894 18.016C38.1814 19.424 37.4774 21.152 37.4774 23.2C37.4774 25.248 38.1814 26.992 39.5894 28.432C41.0294 29.84 42.7574 30.544 44.7734 30.544C46.8214 30.544 48.5334 29.84 49.9094 28.432C51.2854 26.992 51.9734 25.248 51.9734 23.2C51.9734 21.152 51.2854 19.424 49.9094 18.016C48.5334 16.608 46.8214 15.904 44.7734 15.904C42.7574 15.904 41.0294 16.608 39.5894 18.016ZM41.5094 34.288C39.4614 34.288 37.7494 33.488 36.3734 31.888C34.9974 30.288 34.3094 28.288 34.3094 25.888C34.3094 23.456 35.0614 21.12 36.5654 18.88C38.0694 16.608 39.8294 14.912 41.8454 13.792C43.8614 12.672 45.8934 12.112 47.9414 12.112C49.9894 12.112 51.7014 12.912 53.0774 14.512C54.4534 16.112 55.1414 18.128 55.1414 20.56C55.1414 22.96 54.3894 25.296 52.8854 27.568C51.3814 29.808 49.6214 31.488 47.6054 32.608C45.5894 33.728 43.5574 34.288 41.5094 34.288ZM69.7034 15.664C69.5434 15.664 67.5434 15.536 63.7034 15.28C63.7034 15.696 63.6394 17.28 63.5114 20.032C63.3834 22.784 63.3194 24.832 63.3194 26.176C63.3194 27.488 63.6074 28.592 64.1834 29.488C64.7914 30.352 65.0954 31.136 65.0954 31.84C65.0954 32.544 64.8554 33.136 64.3754 33.616C63.8954 34.064 63.3514 34.288 62.7434 34.288C61.1434 34.288 60.3434 33.024 60.3434 30.496L60.1514 20.752C60.1514 18.768 60.1034 16.992 60.0074 15.424H58.8554C58.4074 15.424 58.0394 15.296 57.7514 15.04C57.4634 14.752 57.3194 14.368 57.3194 13.888C57.3194 13.408 57.4634 13.04 57.7514 12.784C58.0394 12.496 58.4074 12.352 58.8554 12.352H59.8634C59.7994 10.688 59.7674 9.424 59.7674 8.56C59.7674 7.664 59.9754 6.96 60.3914 6.448C60.8394 5.904 61.3674 5.632 61.9754 5.632C62.5834 5.632 63.0794 5.888 63.4634 6.4C63.8474 6.88 64.0394 7.68 64.0394 8.8C64.0394 9.92 63.9914 11.152 63.8954 12.496L69.7034 12.112C70.9514 12.112 71.5754 12.704 71.5754 13.888C71.5754 15.072 70.9514 15.664 69.7034 15.664ZM81.5646 24.448L75.8526 23.968C75.3086 23.968 74.8766 24.016 74.5566 24.112C74.7486 25.936 75.5166 27.456 76.8606 28.672C78.2366 29.888 79.8526 30.496 81.7086 30.496C83.5006 30.496 85.1166 29.84 86.5566 28.528C87.0686 28.08 87.4526 27.856 87.7086 27.856C87.9646 27.856 88.1886 27.952 88.3806 28.144C88.5726 28.336 88.6686 28.544 88.6686 28.768C88.6686 29.696 87.7566 30.848 85.9326 32.224C84.1406 33.6 82.0926 34.288 79.7886 34.288C77.5166 34.288 75.5326 33.36 73.8366 31.504C72.1726 29.648 71.3406 27.344 71.3406 24.592C71.3406 21.072 72.6686 18.112 75.3246 15.712C77.9806 13.312 80.9086 12.112 84.1086 12.112C85.4526 12.112 86.5406 12.352 87.3726 12.832C88.2366 13.28 88.6686 13.872 88.6686 14.608C88.6686 15.312 88.4446 15.888 87.9966 16.336C87.5806 16.784 87.1646 17.008 86.7486 17.008C86.3326 17.008 85.6126 16.816 84.5886 16.432C83.5966 16.048 82.6366 15.856 81.7086 15.856C79.9806 15.856 78.4766 16.384 77.1966 17.44C75.9486 18.464 75.1166 19.744 74.7006 21.28L81.3246 20.896C82.7966 20.896 83.5326 21.472 83.5326 22.624C83.5326 23.84 82.8766 24.448 81.5646 24.448ZM113.977 19.6L106.009 19.36L99.9126 19.504C99.6246 20.176 99.3046 21.024 98.9526 22.048C98.6326 23.072 98.2006 24.272 97.6566 25.648C97.1126 26.992 96.4886 28.352 95.7846 29.728C94.2166 32.768 92.7126 34.288 91.2726 34.288C90.0246 34.288 89.4006 33.584 89.4006 32.176C89.4006 31.28 90.2806 29.968 92.0406 28.24C92.7766 27.568 93.6086 26.464 94.5366 24.928C95.4966 23.392 96.3286 21.616 97.0326 19.6H95.3046C94.7926 19.6 94.3446 19.456 93.9606 19.168C93.6086 18.848 93.4326 18.416 93.4326 17.872C93.4326 17.328 93.6246 16.88 94.0086 16.528C94.3926 16.176 94.8086 16 95.2566 16L98.6166 16.048C101.337 10 103.913 5.824 106.345 3.52C105.097 3.52 103.209 3.648 100.681 3.904C98.1526 4.128 96.6166 4.24 96.0726 4.24C95.5606 4.24 95.1126 4.096 94.7286 3.808C94.3446 3.488 94.1526 3.056 94.1526 2.512C94.1526 1.936 94.3446 1.472 94.7286 1.12C95.1446 0.767998 95.5926 0.591998 96.0726 0.591998L106.537 0.879997L117.913 0.591998C118.489 0.591998 118.953 0.767998 119.305 1.12C119.657 1.472 119.833 1.92 119.833 2.464C119.833 3.648 119.177 4.24 117.865 4.24H116.713C116.713 9.36 116.921 13.984 117.337 18.112C117.753 22.24 118.169 25.424 118.585 27.664C119.001 29.904 119.209 31.328 119.209 31.936C119.209 32.512 119.017 33.056 118.633 33.568C118.281 34.048 117.785 34.288 117.145 34.288C116.537 34.288 116.009 34.064 115.561 33.616C115.113 33.168 114.873 32.528 114.841 31.696L113.977 19.6ZM113.113 3.664L111.913 3.616C108.297 3.968 104.777 8.128 101.353 16.096C104.105 16.16 105.801 16.192 106.441 16.192C107.081 16.192 109.513 16.128 113.737 16C113.321 8.928 113.113 4.816 113.113 3.664ZM127.883 47.92C127.275 47.92 126.731 47.68 126.251 47.2C125.803 46.752 125.579 46.096 125.579 45.232C125.579 45.072 125.723 44.016 126.011 42.064C126.331 40.112 126.491 36.848 126.491 32.272C126.491 27.696 126.411 23.504 126.251 19.696C126.219 18.96 125.931 18.112 125.387 17.152C124.875 16.192 124.619 15.344 124.619 14.608C124.619 13.872 124.859 13.28 125.339 12.832C125.819 12.352 126.363 12.112 126.971 12.112C128.571 12.112 129.371 13.376 129.371 15.904V18.16C130.715 16.304 132.331 14.832 134.219 13.744C136.139 12.656 137.915 12.112 139.547 12.112C141.691 12.112 143.419 12.912 144.731 14.512C146.043 16.08 146.699 17.92 146.699 20.032C146.699 22.144 146.283 24.112 145.451 25.936C144.619 27.76 143.563 29.264 142.283 30.448C141.003 31.632 139.643 32.576 138.203 33.28C136.763 33.952 135.387 34.288 134.075 34.288C132.539 34.288 131.771 33.536 131.771 32.032C131.771 31.36 132.011 30.864 132.491 30.544C132.971 30.224 133.451 30.064 133.931 30.064C134.411 30.064 134.907 30.144 135.419 30.304C135.963 30.464 136.459 30.544 136.907 30.544C138.827 30.544 140.443 29.84 141.755 28.432C143.067 26.992 143.723 25.248 143.723 23.2C143.723 21.152 143.067 19.424 141.755 18.016C140.443 16.608 138.827 15.904 136.907 15.904C134.411 15.904 132.571 16.912 131.387 18.928C130.235 20.944 129.659 23.696 129.659 27.184C129.659 29.04 129.787 31.968 130.043 35.968C130.299 39.968 130.427 42.688 130.427 44.128C130.427 46.656 129.579 47.92 127.883 47.92ZM153.57 47.92C152.962 47.92 152.418 47.68 151.938 47.2C151.49 46.752 151.266 46.096 151.266 45.232C151.266 45.072 151.41 44.016 151.698 42.064C152.018 40.112 152.178 36.848 152.178 32.272C152.178 27.696 152.098 23.504 151.938 19.696C151.906 18.96 151.618 18.112 151.074 17.152C150.562 16.192 150.306 15.344 150.306 14.608C150.306 13.872 150.546 13.28 151.026 12.832C151.506 12.352 152.05 12.112 152.658 12.112C154.258 12.112 155.058 13.376 155.058 15.904V18.16C156.402 16.304 158.018 14.832 159.906 13.744C161.826 12.656 163.602 12.112 165.234 12.112C167.378 12.112 169.106 12.912 170.418 14.512C171.73 16.08 172.386 17.92 172.386 20.032C172.386 22.144 171.97 24.112 171.138 25.936C170.306 27.76 169.25 29.264 167.97 30.448C166.69 31.632 165.33 32.576 163.89 33.28C162.45 33.952 161.074 34.288 159.762 34.288C158.226 34.288 157.458 33.536 157.458 32.032C157.458 31.36 157.698 30.864 158.178 30.544C158.658 30.224 159.138 30.064 159.618 30.064C160.098 30.064 160.594 30.144 161.106 30.304C161.65 30.464 162.146 30.544 162.594 30.544C164.514 30.544 166.13 29.84 167.442 28.432C168.754 26.992 169.41 25.248 169.41 23.2C169.41 21.152 168.754 19.424 167.442 18.016C166.13 16.608 164.514 15.904 162.594 15.904C160.098 15.904 158.258 16.912 157.074 18.928C155.922 20.944 155.346 23.696 155.346 27.184C155.346 29.04 155.474 31.968 155.73 35.968C155.986 39.968 156.114 42.688 156.114 44.128C156.114 46.656 155.266 47.92 153.57 47.92Z" fill="#E77F9D"/>
</svg>
